g FX_MESH_Bullet_Trail_02
v -3.0621033 -2.7656554E-07 0.044152316
v -3.0390725 -2.670288E-07 -0.069521084
v -52.179634 0.30503342 -9.734347
v -52.216816 0.30503348 -9.550812
v -3.0220482 -2.5749205E-07 0.55718833
v -3.0119383 -2.7656554E-07 0.44165802
v -52.911068 0.3050329 -3.2405994
v -52.927387 0.30503294 -3.0540588
v -2.0117464 -2.7656554E-07 -3.7348876
v -1.9007487 -2.670288E-07 -3.7685041
v -16.69175 -3.1908746E-06 -52.16722
v -16.870972 -3.1698169E-06 -52.112938
v -2.341583 -2.670288E-07 -3.3505957
v -2.236914 -2.7656554E-07 -3.400537
v -24.323002 0.3050214 -48.763382
v -24.492008 0.30502144 -48.682743
v 2.4542851 -2.7656554E-07 -2.9538357
v 2.53338 -2.7656554E-07 -2.8690119
v 39.518 5.712081E-06 -37.196194
v 39.390293 5.7296525E-06 -37.33315
v 1.9007586 -2.7656554E-07 -3.5471458
v 1.9951533 -2.7656554E-07 -3.4797702
v 31.235521 2.7777478E-06 -44.64736
v 31.083107 2.7887709E-06 -44.75614
v 2.5667062 -2.670288E-07 -2.7377787
v 2.4910688 -2.670288E-07 -2.7765057
v 28.338408 2.9906988 -45.801838
v 28.460533 2.8632708 -45.739296
v 4.2318707 -2.7656554E-07 0.29627302
v 4.2009478 -2.670288E-07 0.40805125
v 53.011047 -3.1908746E-06 13.779049
v 53.060974 -3.1698169E-06 13.598565
v 4.0834045 -2.670288E-07 -0.18790688
v 4.069661 -2.7656554E-07 -0.07275099
v 54.213604 0.3050214 5.5100694
v 54.235794 0.30502144 5.3241305
v 1.6191785 -2.7656554E-07 2.5993624
v 1.509943 -2.670288E-07 2.6383455
v 18.611467 0.30503342 49.71001
v 18.787834 0.30503348 49.647064
v 2.0378199 -2.5749205E-07 2.3001142
v 1.933667 -2.7656554E-07 2.3511202
v 24.549982 0.3050329 46.982773
v 24.71815 0.30503294 46.900414
v -2.7211437 -2.765657E-07 2.746421
v -2.794732 -2.6702895E-07 2.656781
v -41.80363 -2.8405123E-06 34.814827
v -41.684803 -2.7880776E-06 34.959557
v -2.1188533 -2.670288E-07 3.1605306
v -2.2050965 -2.670288E-07 3.0829935
v -35.662483 -3.178948E-06 40.88122
v -35.523228 -3.129138E-06 41.006424
v -2.6933043 -2.7656554E-07 2.5412958
v -2.6202617 -2.7656554E-07 2.5847137
v -30.984854 2.9716775 44.136703
v -31.1028 2.8442492 44.06659
vt 0.17204739 0
vt 0.17204739 1
vt 1.1720474 1
vt 1.1720474 0
vt 0 0
vt 0 1
vt 1 1
vt 1 0
vt 0.040748067 0
vt 0.040748067 1
vt 1.0407481 1
vt 1.0407481 0
vt 0.17204739 0
vt 0.17204739 1
vt 1.1720474 1
vt 1.1720474 0
vt 0.17204739 0
vt 0.17204739 1
vt 1.1720474 1
vt 1.1720474 0
vt 0 0
vt 0 1
vt 1 1
vt 1 0
vt 0.026790315 0
vt 0.026790315 1
vt 1.0267903 1
vt 1.0267903 0
vt 0.040748067 0
vt 0.040748067 1
vt 1.0407481 1
vt 1.0407481 0
vt 0.17204739 0
vt 0.17204739 1
vt 1.1720474 1
vt 1.1720474 0
vt 0.17204739 0
vt 0.17204739 1
vt 1.1720474 1
vt 1.1720474 0
vt 0 0
vt 0 1
vt 1 1
vt 1 0
vt 0.11318908 0
vt 0.11318908 1
vt 1.1131891 1
vt 1.1131891 0
vt 0.040748067 0
vt 0.040748067 1
vt 1.0407481 1
vt 1.0407481 0
vt 0 0
vt 0 1
vt 1 1
vt 1 0
vn -0.0059694313 -0.9999815 -0.0012091778
vn -0.0059694317 -0.9999815 -0.0012091778
vn -0.0059694303 -0.9999815 -0.0012091778
vn -0.0059694313 -0.9999815 -0.0012091778
vn -0.006073682 -0.9999814 -0.0005311956
vn -0.006073682 -0.9999814 -0.00053119555
vn -0.006073682 -0.9999814 -0.00053119555
vn -0.006073682 -0.9999814 -0.0005311956
vn -0 -1 0
vn -0 -1 0
vn -0 -1 0
vn -0 -1 0
vn -0.0026036 -0.99998176 -0.0054563107
vn -0.0026036 -0.99998176 -0.00545631
vn -0.0026036 -0.99998176 -0.00545631
vn -0.0026036003 -0.99998176 -0.00545631
vn -0 -1 -1.2350142E-07
vn -0 -1 -1.2350142E-07
vn -0 -1 -1.2350142E-07
vn -0 -1 -1.2350142E-07
vn -0 -1 0
vn -0 -1 0
vn -0 -1 0
vn -0 -1 0
vn 0.4027755 0.86436623 0.30106947
vn 0.4027755 0.86436623 0.3010695
vn 0.40277553 0.86436623 0.3010694
vn 0.40277553 0.86436635 0.30106944
vn -0 -1 0
vn -0 -1 0
vn -0 -1 0
vn -0 -1 0
vn 0.006003056 -0.99998176 0.00071629585
vn 0.0060030557 -0.99998176 0.0007162958
vn 0.006003056 -0.99998176 0.0007162958
vn 0.0060030553 -0.99998176 0.00071629585
vn 0.002047346 -0.9999815 0.00573626
vn 0.002047346 -0.9999815 0.0057362607
vn 0.002047346 -0.9999815 0.0057362607
vn 0.002047346 -0.9999815 0.0057362607
vn 0.0026816996 -0.9999814 0.00547542
vn 0.0026816998 -0.9999814 0.005475421
vn 0.0026816996 -0.9999814 0.00547542
vn 0.0026816993 -0.9999814 0.0054754196
vn 1.2893362E-07 -1 0
vn 1.2893362E-07 -1 0
vn 1.2893362E-07 -1 0
vn 1.2893362E-07 -1 0
vn 1.6131966E-07 -1 0
vn 1.6131968E-07 -1 0
vn 1.6131968E-07 -1 0
vn 1.6131968E-07 -1 0
vn -0.38462293 0.8645781 -0.32337278
vn -0.3846229 0.864578 -0.32337278
vn -0.38462287 0.864578 -0.32337278
vn -0.38462287 0.864578 -0.32337278
g FX_MESH_Bullet_Trail_02_0
f 3/3/3 2/2/2 1/1/1
f 4/4/4 3/3/3 1/1/1
f 7/7/7 6/6/6 5/5/5
f 8/8/8 7/7/7 5/5/5
f 11/11/11 10/10/10 9/9/9
f 12/12/12 11/11/11 9/9/9
f 15/15/15 14/14/14 13/13/13
f 16/16/16 15/15/15 13/13/13
f 19/19/19 18/18/18 17/17/17
f 20/20/20 19/19/19 17/17/17
f 23/23/23 22/22/22 21/21/21
f 24/24/24 23/23/23 21/21/21
f 27/27/27 26/26/26 25/25/25
f 28/28/28 27/27/27 25/25/25
f 31/31/31 30/30/30 29/29/29
f 32/32/32 31/31/31 29/29/29
f 35/35/35 34/34/34 33/33/33
f 36/36/36 35/35/35 33/33/33
f 39/39/39 38/38/38 37/37/37
f 40/40/40 39/39/39 37/37/37
f 43/43/43 42/42/42 41/41/41
f 44/44/44 43/43/43 41/41/41
f 47/47/47 46/46/46 45/45/45
f 48/48/48 47/47/47 45/45/45
f 51/51/51 50/50/50 49/49/49
f 52/52/52 51/51/51 49/49/49
f 55/55/55 54/54/54 53/53/53
f 56/56/56 55/55/55 53/53/53
