g OL_FX_MESH_Hinata_Bullet_002
v 0.030156555 -3.604889E-05 0
v 0.026218185 0.0046617505 -0.008136826
v 0.026218185 -0.00473381 -0.008136826
v 0.026218185 0.009359551 0
v 0.026218185 0.0046617505 0.008136787
v 0.017175293 0.015089683 0
v 0.017175293 0.0075268173 0.01309925
v 0.017175293 0.0075268173 -0.013099289
v 0.0070290375 0.015089683 0
v 0.0070290375 0.0075268555 -0.013099289
v 0.0070290375 -0.007598877 -0.013099289
v 0.017175293 -0.007598877 -0.013099289
v 0.0070290375 0.0075268173 0.013099212
v 0.017175293 -0.007598877 0.013099212
v 0.0070290375 -0.007598877 0.013099212
v -0.015366821 0.0075268555 -0.013099289
v -0.015366821 0.015089683 0
v -0.015366821 -0.007598877 -0.013099289
v 0.0070290375 -0.007598877 -0.013099289
v -0.015366821 0.0075268173 0.013099212
v 0.0070290375 -0.007598877 0.013099212
v -0.01952568 0.0058683013 -0.010226631
v -0.01952568 -0.005940361 -0.010226592
v -0.015366821 -0.007598877 -0.013099289
v -0.02088585 -0.0043120957 -0.007406349
v -0.01952568 0.011772613 -3.8146972E-08
v -0.02088585 0.004239998 -0.007406349
v -0.02088585 0.008516044 0
v -0.02088585 -0.0085881045 -3.8146972E-08
v -0.01952568 0.005868263 0.010226516
v -0.02088585 0.004239998 0.0074063106
v -0.02088585 -0.0043120957 0.0074063106
v -0.01952568 -0.005940361 0.010226554
v -0.015366821 -0.007598877 0.013099212
v -0.01952568 -0.005940361 0.010226554
v -0.015366821 -0.015161742 -3.8146972E-08
v 0.0070290375 -0.015161742 -3.8146972E-08
v -0.01952568 -0.011844673 0
v -0.02088585 -0.0043120957 0.0074063106
v -0.02088585 -0.0085881045 -3.8146972E-08
v -0.01952568 -0.005940361 -0.010226592
v -0.02088585 -0.0043120957 -0.007406349
v 0.017175293 -0.007598877 -0.013099289
v 0.017175293 -0.015161742 -3.8146972E-08
v 0.017175293 -0.007598877 0.013099212
v 0.026218185 -0.00943161 0
v 0.026218185 -0.00473381 0.008136787
v 0.026218185 0.0046617505 0.008136787
v 0.017175293 0.0075268173 0.01309925
v 0.030156555 -3.604889E-05 0
v 0.026218185 -0.00473381 -0.008136826
v 0.017175293 0.0075268173 -0.013099289
vt 0.98357254 0.9636951
vt 0.92173207 0.96031016
vt 0.92173207 0.96031016
vt 0.92173207 0.9636951
vt 0.92173207 0.96707994
vt 0.77973753 0.9636951
vt 0.77973735 0.9691444
vt 0.77973765 0.9582457
vt 0.52768844 0.9636951
vt 0.5276885 0.9582457
vt 0.52768844 0.9582457
vt 0.77973753 0.9582457
vt 0.52768826 0.9691444
vt 0.77973735 0.9691444
vt 0.5276882 0.9691444
vt 0.4198949 0.9582457
vt 0.41989484 0.9636951
vt 0.41989484 0.9582457
vt 0.52768844 0.9582457
vt 0.41989473 0.9691444
vt 0.5276882 0.9691444
vt 0.06005213 0.9582457
vt 0.06005213 0.9582457
vt 0.41989484 0.9582457
vt 0.036498655 0.95886964
vt 0.06005213 0.9636951
vt 0.036498655 0.95886964
vt 0.036498655 0.9636951
vt 0.036498334 0.9636951
vt 0.06005213 0.9691444
vt 0.036498655 0.96852034
vt 0.036498334 0.96852034
vt 0.060051817 0.9691444
vt 0.41989458 0.9691444
vt 0.060051817 0.9691444
vt 0.41989458 0.9636951
vt 0.5276882 0.9636951
vt 0.060051817 0.9636951
vt 0.036498334 0.96852034
vt 0.036498334 0.9636951
vt 0.06005213 0.9582457
vt 0.036498655 0.95886964
vt 0.77973753 0.9582457
vt 0.77973735 0.9636951
vt 0.77973735 0.9691444
vt 0.92173207 0.9636951
vt 0.92173165 0.96707994
vt 0.92173207 0.96707994
vt 0.77973735 0.9691444
vt 0.98357254 0.9636951
vt 0.92173207 0.96031016
vt 0.77973765 0.9582457
vn 1 -8.6931254E-07 7.4265773E-07
vn 0.71824616 0.3478949 -0.6025709
vn 0.7182461 -0.34789458 -0.60257107
vn 0.7182458 0.6957895 6.300666E-07
vn 0.7182456 0.34789422 0.6025719
vn 0.25744107 0.966294 1.0919244E-06
vn 0.25744006 0.4831457 0.83683616
vn 0.25744167 0.48314685 -0.83683497
vn 1.9620197E-07 1 1.9278896E-06
vn 4.680847E-07 0.5000015 -0.8660246
vn -0 -0.49999973 -0.8660255
vn 0.25744143 -0.48314676 -0.83683527
vn -8.14549E-07 0.49999934 0.8660258
vn 0.25743994 -0.4831475 0.83683527
vn -5.426671E-07 -0.5 0.86602545
vn -0.30145574 0.47674146 -0.8257373
vn -0.3014562 0.95348006 2.7738631E-06
vn -0.30145591 -0.47673947 -0.82573843
vn -0 -0.49999973 -0.8660255
vn -0.3014563 0.47673932 0.82573825
vn -5.426671E-07 -0.5 0.86602545
vn -0.76042646 0.32471174 -0.5624179
vn -0.760426 -0.32471374 -0.5624174
vn -0.30145591 -0.47673947 -0.82573843
vn -0.9662664 -0.12877297 -0.22303943
vn -0.7604264 0.6494242 -1.7637473E-07
vn -0.966267 0.12877037 -0.22303863
vn -0.96626675 0.25754336 2.4478632E-06
vn -0.96626663 -0.25754386 -1.2488083E-06
vn -0.76042575 0.32471207 0.56241864
vn -0.966266 0.12877253 0.22304195
vn -0.9662663 -0.12877189 0.22304079
vn -0.76042485 -0.32471266 0.5624195
vn -0.3014551 -0.47673976 0.82573843
vn -0.76042485 -0.32471266 0.5624195
vn -0.30145493 -0.9534804 -6.43032E-07
vn -0 -1 0
vn -0.76042503 -0.6494258 2.2598017E-06
vn -0.9662663 -0.12877189 0.22304079
vn -0.96626663 -0.25754386 -1.2488083E-06
vn -0.760426 -0.32471374 -0.5624174
vn -0.9662664 -0.12877297 -0.22303943
vn 0.25744143 -0.48314676 -0.83683527
vn 0.2574408 -0.966294 -2.6991404E-07
vn 0.25743994 -0.4831475 0.83683527
vn 0.7182452 -0.69579 1.1684867E-06
vn 0.71824485 -0.34789503 0.60257226
vn 0.7182456 0.34789422 0.6025719
vn 0.25744006 0.4831457 0.83683616
vn 1 -8.6931254E-07 7.4265773E-07
vn 0.7182461 -0.34789458 -0.60257107
vn 0.25744167 0.48314685 -0.83683497
g OL_FX_MESH_Hinata_Bullet_002_0
f 3/3/3 2/2/2 1/1/1
f 2/2/2 4/4/4 1/1/1
f 4/4/4 5/5/5 1/1/1
f 5/5/5 4/4/4 6/6/6
f 6/6/6 4/4/4 2/2/2
f 7/7/7 5/5/5 6/6/6
f 8/8/8 6/6/6 2/2/2
f 7/7/7 6/6/6 9/9/9
f 6/6/6 8/8/8 10/10/10
f 9/9/9 6/6/6 10/10/10
f 10/10/10 8/8/8 11/11/11
f 8/8/8 12/12/12 11/11/11
f 13/13/13 7/7/7 9/9/9
f 14/14/14 7/7/7 13/13/13
f 15/15/15 14/14/14 13/13/13
f 9/9/9 10/10/10 16/16/16
f 13/13/13 9/9/9 17/17/17
f 17/17/17 9/9/9 16/16/16
f 16/16/16 10/10/10 18/18/18
f 10/10/10 19/19/19 18/18/18
f 20/20/20 13/13/13 17/17/17
f 21/21/21 13/13/13 20/20/20
f 17/17/17 16/16/16 22/22/22
f 22/22/22 16/16/16 23/23/23
f 16/16/16 24/24/24 23/23/23
f 23/23/23 25/25/25 22/22/22
f 26/26/26 17/17/17 22/22/22
f 20/20/20 17/17/17 26/26/26
f 25/25/25 27/27/27 22/22/22
f 22/22/22 27/27/27 26/26/26
f 28/28/28 27/27/27 25/25/25
f 27/27/27 28/28/28 26/26/26
f 29/29/29 28/28/28 25/25/25
f 30/30/30 20/20/20 26/26/26
f 26/26/26 28/28/28 30/30/30
f 31/31/31 28/28/28 29/29/29
f 28/28/28 31/31/31 30/30/30
f 32/32/32 31/31/31 29/29/29
f 31/31/31 32/32/32 33/33/33
f 30/30/30 31/31/31 33/33/33
f 34/34/34 20/20/20 30/30/30
f 35/35/35 34/34/34 30/30/30
f 34/34/34 21/21/21 20/20/20
f 36/36/36 34/34/34 35/35/35
f 37/37/37 21/21/21 34/34/34
f 36/36/36 37/37/37 34/34/34
f 38/38/38 36/36/36 35/35/35
f 35/35/35 39/39/39 38/38/38
f 39/39/39 40/40/40 38/38/38
f 38/38/38 40/40/40 41/41/41
f 40/40/40 42/42/42 41/41/41
f 41/41/41 18/18/18 38/38/38
f 18/18/18 36/36/36 38/38/38
f 18/18/18 19/19/19 36/36/36
f 19/19/19 37/37/37 36/36/36
f 19/19/19 43/43/43 37/37/37
f 37/37/37 44/44/44 21/21/21
f 43/43/43 44/44/44 37/37/37
f 44/44/44 45/45/45 21/21/21
f 44/44/44 43/43/43 46/46/46
f 45/45/45 44/44/44 47/47/47
f 44/44/44 46/46/46 47/47/47
f 45/45/45 47/47/47 48/48/48
f 49/49/49 45/45/45 48/48/48
f 48/48/48 47/47/47 50/50/50
f 47/47/47 46/46/46 50/50/50
f 46/46/46 51/51/51 50/50/50
f 43/43/43 51/51/51 46/46/46
f 43/43/43 52/52/52 51/51/51
f 52/52/52 2/2/2 51/51/51
